<?xml version="1.0" encoding="utf-8"?>
<!-- Generator: Adobe Illustrator 25.2.0, SVG Export Plug-In . SVG Version: 6.00 Build 0)  -->
<svg version="1.1" id="Layer_1" xmlns="http://www.w3.org/2000/svg" xmlns:xlink="http://www.w3.org/1999/xlink" x="0px" y="0px"
	 viewBox="0 0 1500 1200" style="enable-background:new 0 0 1500 1200;" xml:space="preserve">
<style type="text/css">
	.st0{fill:#314E29;}
	.st1{fill:none;stroke:#3C5F30;stroke-width:37;stroke-miterlimit:10;}
	.st2{fill:none;stroke:#3C5F30;stroke-width:31;stroke-miterlimit:10;}
	.st3{fill:none;stroke:#3C5F30;stroke-width:20;stroke-miterlimit:10;}
	.st4{fill:none;stroke:#3C5F30;stroke-width:28;stroke-miterlimit:10;}
	.st5{fill:#3C5F30;}
</style>
<g>
	<path class="st0" d="M209.56,600.52c19.66,16.06,33.02,31.27,40.11,45.62c9.03,19.02,13.56,41.62,13.56,67.81v227.52
		c0,24.06,6.5,43.81,19.52,59.25c13.02,15.41,29.19,24.17,48.53,26.3c12.22,1.25,20.31,3.78,24.27,7.58
		c5.12,5.03,7.69,11.34,7.69,18.92c0,7.98-2.58,14.39-7.72,19.25c-5.16,4.83-12.67,7.25-22.55,7.25
		c-31.27,0-57.25-10.56-77.94-31.67c-27.73-29.14-41.67-64.61-41.8-106.41V713.89c0-23.22-6.59-42.73-19.77-58.58
		s-29.94-24.61-50.3-26.3c-11.19-1.25-18.97-4.2-23.36-8.86c-4.39-4.64-6.58-11.19-6.58-19.64c0-8.02,2.19-14.34,6.58-19
		c4.39-4.64,12.17-7.59,23.36-8.88c20.75-1.69,37.62-10.44,50.59-26.28c12.97-15.83,19.47-35.36,19.47-58.59V259.74
		c0.12-39.69,11.91-72.73,35.34-99.12s51.77-39.59,84.98-39.59c9.5,0,16.81,2.55,21.95,7.61s7.72,11.39,7.72,18.98
		c0,7.61-2.56,13.94-7.69,19c-3.56,4.23-11.64,6.98-24.27,8.23c-19.72,2.12-36,10.98-48.81,26.61
		c-12.83,15.62-19.23,35.06-19.23,58.28v228.03c0,26.61-3.94,48.05-11.8,64.3C243.56,568.31,229.61,584.47,209.56,600.52z"/>
	<path class="st0" d="M1290.7,600.52c-20.06-16.06-33.42-31.27-40.11-45.64c-9.05-18.59-13.56-41-13.56-67.2V259.44
		c0-23.66-6.52-43.31-19.53-58.95s-29.19-24.3-48.52-25.98c-12.62-1.25-20.72-3.77-24.27-7.55c-5.12-5.45-7.69-11.95-7.69-19.52
		c0-7.55,2.45-13.84,7.39-18.88c4.92-5.03,12.31-7.55,22.16-7.55c31.52,0,57.52,10.77,78.02,32.3
		c28.28,28.72,42.44,64.17,42.44,106.39v227.98c0,23.22,6.64,42.75,19.94,58.58c13.28,15.84,30.05,24.61,50.3,26.3
		c10.72,1.28,18.36,4.23,22.92,8.89s6.84,11.02,6.84,19.06c0,8.58-2.28,15.22-6.84,19.94s-12.2,7.7-22.92,8.98
		c-20.64,1.72-37.5,10.48-50.59,26.28s-19.64,35.28-19.64,58.44v227.48c-0.78,39.59-12.8,72.55-36.05,98.89
		c-23.27,26.31-51.34,39.48-84.23,39.48c-9.91,0-17.34-2.5-22.3-7.48c-4.95-5-7.42-11.44-7.42-19.33c0-7.48,2.36-13.72,7.09-18.7
		c3.94-3.75,12.23-6.23,24.86-7.48c19.72-2.12,35.98-11.09,48.81-26.94c12.81-15.84,19.23-35.39,19.23-58.61V713.95
		c0-26.61,3.92-48.16,11.8-64.64C1256.68,632.84,1270.63,616.58,1290.7,600.52z"/>
</g>
<circle class="st1" cx="750" cy="502.19" r="287.91"/>
<path class="st2" d="M750,991.85"/>
<path class="st3" d="M750,293.22"/>
<line class="st4" x1="750" y1="375.4" x2="789.88" y2="342.05"/>
<line class="st4" x1="750" y1="420.89" x2="820.2" y2="381.47"/>
<line class="st4" x1="750" y1="478.5" x2="847.49" y2="426.95"/>
<line class="st4" x1="750" y1="520.95" x2="874.78" y2="475.47"/>
<line class="st4" x1="750" y1="567.05" x2="892.98" y2="527.32"/>
<line class="st4" x1="764.99" y1="693.83" x2="859.79" y2="700.56"/>
<line class="st4" x1="750" y1="378.09" x2="710.12" y2="344.74"/>
<line class="st4" x1="750" y1="423.58" x2="679.8" y2="384.16"/>
<line class="st4" x1="750" y1="481.19" x2="652.51" y2="429.64"/>
<line class="st4" x1="750" y1="523.64" x2="625.22" y2="478.16"/>
<line class="st4" x1="750" y1="569.74" x2="607.02" y2="530.01"/>
<line class="st4" x1="750" y1="608.85" x2="600.42" y2="590.03"/>
<path class="st5" d="M726.96,1014.18c0-20.03,2.87-725.01,23.04-725.01c21.04,0,23.04,704.98,23.04,725.01s-10.32,36.27-23.04,36.27
	S726.96,1034.21,726.96,1014.18z"/>
<g>
	<path class="st5" d="M1013.81,869.02c0,8.25-6.75,15-15,15H501.19c-8.25,0-15-6.75-15-15v-9.25c0-8.25,6.75-15,15-15h497.62
		c8.25,0,15,6.75,15,15V869.02z"/>
</g>
<rect x="1849.39" y="1009.94" style="fill:none;" width="3.71" height="0"/>
<rect x="1908.81" y="813.11" style="fill:none;" width="3.71" height="0"/>
<line class="st4" x1="743.58" y1="653.5" x2="881.2" y2="650.95"/>
<line class="st4" x1="737.35" y1="693.83" x2="642.56" y2="700.56"/>
<line class="st4" x1="756.42" y1="653.33" x2="618.8" y2="650.79"/>
<line class="st4" x1="746.7" y1="610.28" x2="896.28" y2="591.46"/>
</svg>
